IKResults																																									
version=1																																									
nRows=10																																									
nColumns=42																																									
inDegrees=yes																																									
																																									
"Units are S.I. units (second, meters, Newtons, ...)"																																									
"If the header above contains a line with 'inDegrees', this indicates whether rotational values are in degrees (yes) or radians (no)."																																									
																																									
endheader																																									
time	pelvis_tilt	pelvis_list	pelvis_rotation	pelvis_tx	pelvis_ty	pelvis_tz	hip_flexion_r	hip_adduction_r	hip_rotation_r	knee_angle_r	knee_adduction_r	knee_angle_r_beta	ankle_angle_r	subtalar_angle_r	mtp_angle_r	hip_flexion_l	hip_adduction_l	hip_rotation_l	knee_angle_l	knee_adduction_l	knee_angle_l_beta	ankle_angle_l	subtalar_angle_l	mtp_angle_l	lumbar_extension	lumbar_bending	lumbar_rotation	arm_flex_r	arm_add_r	arm_rot_r	elbow_flex_r	pro_sup_r	wrist_flex_r	wrist_dev_r	arm_flex_l	arm_add_l	arm_rot_l	elbow_flex_l	pro_sup_l	wrist_flex_l	wrist_dev_l
0	-3.928216667	-2.533876577	3.468079789	0.996446754	0.936652815	0.497573356	26.48289016	-3.298908088	2.519736232	25.94724489	2.2228717	0.452864852	3.479522744	-23.16752608	-9.64454219	11.88363925	-9.163588268	0.914394215	56.13681677	5.38393913	0.97977228	9.071402079	-18.08243988	1.977809309	-7.208565757	4.784067733	-1.134407986	-4.664528893	-10.99348576	-19.98000773	18.69573505	90.00000001	0	0	11.95029208	-12.25791304	-9.541148729	75.91947407	90.00000001	0	0
0.01	-3.957833053	-2.812264237	3.110360187	0.995919299	0.938108767	0.499840017	25.7316683	-2.746914079	2.690840201	25.35011761	2.2228717	0.442443015	3.612410268	-23.05169691	-10.10358687	13.40590355	-9.844649521	0.541965933	58.23465435	5.38393913	1.016386454	9.220912903	-18.60714033	2.319417665	-7.21721962	5.049531973	-0.484192903	-3.092933105	-11.19375831	-19.55412712	19.68569476	90.00000001	0	0	11.01678042	-11.69772432	-9.426953709	74.34457327	90.00000001	0	0
0.02	-3.984664223	-3.078524728	2.764755913	0.995386145	0.939549238	0.502045436	24.98414907	-2.216328075	2.853195976	24.75810284	2.2228717	0.432110409	3.747236885	-22.92540346	-10.55508404	14.90358021	-10.50493064	0.178461202	60.25496384	5.38393913	1.051647507	9.367860296	-19.08220592	2.63796524	-7.229373442	5.302106367	0.147067398	-1.530900794	-11.39354617	-19.13032468	20.65697153	90.00000001	0	0	10.09401594	-11.14683515	-9.321720257	72.78302376	90.00000001	0	0
0.03	-4.003852839	-3.325288481	2.441738204	0.994820471	0.94096759	0.504141745	24.23184094	-1.720912345	3.005100197	24.16956706	2.2228717	0.421838522	3.888848851	-22.78667542	-10.98994465	16.36651767	-11.12981001	-0.169734273	62.09890145	5.38393913	1.083830291	9.508884909	-19.47001942	2.917507661	-7.25267637	5.534643859	0.744270864	0.043236217	-11.59677356	-18.69679248	21.61261416	90.00000001	0	0	9.184684755	-10.609606	-9.231038911	71.19521119	90.00000001	0	0
0.04	-4.011373619	-3.546901132	2.149269366	0.994198445	0.942356397	0.506089951	23.46817328	-1.271040733	3.146999701	23.58389052	2.2228717	0.411616539	4.040781431	-22.6368399	-11.40070368	17.78605552	-11.70723583	-0.497744282	63.68073646	5.38393913	1.111438521	9.640881252	-19.74195135	3.145957889	-7.293681766	5.741823541	1.295302061	1.648841244	-11.80681668	-18.24197779	22.55683929	90.00000001	0	0	8.291206335	-10.08989432	-9.15882734	69.54387618	90.00000001	0	0
0.05	-4.004304778	-3.739964875	1.89225287	0.993501149	0.94370672	0.507862019	22.68938285	-0.872807246	3.281685392	23.00198052	2.2228717	0.401460294	4.204811798	-22.48095559	-11.78193826	19.1548032	-12.22847182	-0.802466455	64.93299351	5.38393913	1.13329453	9.761042145	-19.88190148	3.316541111	-7.35737851	5.920744808	1.791840389	3.300640059	-12.02621364	-17.75535653	23.49511243	90.00000001	0	0	7.416288131	-9.591032583	-9.106813855	67.79662841	90.00000001	0	0
0.06	-3.980915544	-3.903705392	1.672518574	0.992715742	0.945007841	0.509441522	21.8947743	-0.527627347	3.413992581	22.42636509	2.2228717	0.39141391	4.380921696	-22.32752439	-12.13022162	20.46646087	-12.6885821	-1.08253889	65.80922826	5.38393913	1.148587712	9.866828584	-19.88850171	3.428716238	-7.446967077	6.071353873	2.229655837	5.007203557	-12.25654716	-17.22816574	24.43439147	90.00000001	0	0	6.563397201	-9.115762826	-9.074284634	65.92741223	90.00000001	0	0
0.07	-3.94060227	-4.040115732	1.489265827	0.991835905	0.946247453	0.510823008	21.08640704	-0.232335633	3.550105593	21.86086716	2.2228717	0.381544109	4.567599077	-22.18757622	-12.44368476	21.71568809	-13.08661702	-1.338068235	66.28441843	5.38393913	1.156881345	9.955918019	-19.77557472	3.488395897	-7.563841811	6.196622724	2.608414367	6.770277218	-12.49847063	-16.65406142	25.38343291	90.00000001	0	0	5.737059173	-8.666171816	-9.058131704	63.91708391	90.00000001	0	0
0.08	-3.883727756	-4.153846459	1.339812263	0.990861698	0.94741224	0.512010459	20.26835471	0.020273992	3.696632437	21.30994216	2.2228717	0.371928654	4.762344939	-22.07332621	-12.72136315	22.89801786	-13.42547728	-1.57021252	66.35326715	5.38393913	1.158082982	10.02617317	-19.57064233	3.50736906	-7.707719006	6.30242158	2.931081795	8.584891931	-12.7518304	-16.02964918	26.35304574	90.00000001	0	0	4.942906201	-8.243674602	-9.053193984	61.75339191	90.00000001	0	0
0.09	-3.811426648	-4.251831929	1.220465581	0.989798938	0.948488738	0.513015165	19.44574225	0.240548688	3.859626334	20.7778293	2.2228717	0.362641533	4.962240026	-21.99663424	-12.96256054	24.00981205	-13.71144762	-1.780722114	66.02693288	5.38393913	1.152387375	10.07564059	-19.31153949	3.501926223	-7.876847051	6.397060865	3.203056064	10.44012362	-13.01583752	-15.3548269	27.35618759	90.00000001	0	0	4.187430987	-7.849073244	-9.052846939	59.4306839	90.00000001	0	0
